<?xml version="1.0" standalone="no"?>
<!DOCTYPE svg PUBLIC "-//W3C//DTD SVG 20010904//EN"
 "http://www.w3.org/TR/2001/REC-SVG-20010904/DTD/svg10.dtd">
<svg version="1.0" xmlns="http://www.w3.org/2000/svg"
 width="180.000000pt" height="180.000000pt" viewBox="0 0 180.000000 180.000000"
 preserveAspectRatio="xMidYMid meet">
<metadata>
Created by potrace 1.11, written by Peter Selinger 2001-2013
</metadata>
<g transform="translate(0.000000,180.000000) scale(0.100000,-0.100000)"
fill="#000000" stroke="none">
<path d="M940 1670 c0 -39 -1 -40 -35 -40 -40 0 -47 -17 -10 -26 13 -3 26 -13
29 -22 3 -10 4 -325 3 -702 l-2 -685 -32 -3 c-47 -5 -43 -30 5 -34 35 -3 37
-5 40 -41 4 -47 22 -49 22 -2 l0 35 68 1 c145 1 280 7 339 14 62 7 63 8 70 44
7 31 10 456 6 731 -1 47 -1 189 -1 315 0 127 -3 260 -7 297 l-8 66 -56 8 c-90
12 -98 12 -258 13 l-153 1 0 35 c0 19 -4 35 -10 35 -5 0 -10 -18 -10 -40z
m279 -229 c12 -8 15 -47 17 -200 2 -185 1 -192 -19 -206 -12 -8 -35 -15 -52
-15 l-30 0 -1 215 -1 215 36 0 c20 0 42 -4 50 -9z m12 -628 c17 -17 15 -438
-1 -458 -7 -9 -29 -15 -54 -15 l-41 0 -1 246 -2 245 44 -4 c24 -2 49 -8 55
-14z"/>
<path d="M370 1666 c0 -32 -3 -35 -32 -38 -38 -4 -40 -22 -4 -26 l25 -3 3
-152 c2 -84 2 -403 0 -709 l-2 -558 -30 0 c-40 0 -38 -18 3 -22 28 -3 32 -7
35 -35 4 -43 32 -45 32 -4 l0 30 88 -3 c160 -4 362 23 362 49 0 7 -6 16 -12
18 -9 4 -8 6 2 6 34 2 40 114 40 672 0 308 -4 559 -10 588 -7 39 -18 59 -40
78 -17 14 -29 32 -28 41 4 24 -94 40 -237 40 -179 0 -165 -2 -165 32 0 20 -5
30 -15 30 -10 0 -15 -10 -15 -34z m263 -225 c13 -5 27 -18 31 -28 9 -23 9
-994 0 -1031 -9 -34 -20 -42 -61 -42 l-33 0 -2 252 c-2 139 -2 389 0 556 2
289 3 302 22 302 10 0 30 -4 43 -9z"/>
</g>
</svg>
